<svg width="25" height="24" viewBox="0 0 25 24" fill="none" xmlns="http://www.w3.org/2000/svg">
<path d="M23.0391 11.9553H1.96091C1.13082 11.9553 0.45533 12.6308 0.45533 13.4609C0.45533 14.291 1.13082 14.9665 1.96091 14.9665H23.0391C23.8692 14.9665 24.5447 14.291 24.5447 13.4609C24.5447 12.6308 23.8692 11.9553 23.0391 11.9553Z" fill="#888B97"/>
<path d="M23.1776 13.9819C22.9056 13.9056 22.6325 14.0602 22.5573 14.3272L22.5181 14.4647H2.4828L2.44267 14.3272C2.36739 14.0602 2.09238 13.9076 1.82236 13.9819C1.55536 14.0581 1.40179 14.3362 1.4781 14.6022L2.86122 19.4441C3.28979 20.9447 4.67897 21.9926 6.23876 21.9926H18.7602C20.321 21.9926 21.7091 20.9447 22.1377 19.4441L23.5208 14.6022C23.5981 14.3362 23.4435 14.0581 23.1776 13.9819ZM6.23975 19.9851C5.57127 19.9851 4.97506 19.5364 4.79236 18.893L4.14096 16.6106C4.0647 16.3436 4.21925 16.0665 4.48522 15.9903C4.75421 15.914 5.03025 16.0695 5.10552 16.3356L5.75693 18.618C5.81917 18.8318 6.01687 18.9824 6.2397 18.9824C6.51673 18.9824 6.74158 19.2072 6.74158 19.4843C6.74162 19.7613 6.51677 19.9851 6.23975 19.9851Z" fill="#888B97"/>
<path d="M7.20338 21.0411C6.95548 20.9197 6.65535 21.017 6.52987 21.266L5.52616 23.2734C5.4027 23.5213 5.50306 23.8224 5.75101 23.9469C5.82426 23.9831 5.90058 24.0001 5.97586 24.0001C6.15954 24.0001 6.33621 23.8987 6.42452 23.7221L7.42823 21.7147C7.55169 21.4667 7.45129 21.1655 7.20338 21.0411Z" fill="#888B97"/>
<path d="M19.4738 23.2743L18.4701 21.2668C18.3457 21.0179 18.0445 20.9185 17.7966 21.042C17.5487 21.1664 17.4483 21.4676 17.5717 21.7155L18.5754 23.723C18.6638 23.8986 18.8404 24 19.0241 24C19.0994 24 19.1757 23.9829 19.249 23.9478C19.4969 23.8233 19.5973 23.5222 19.4738 23.2743Z" fill="#888B97"/>
<path d="M20.6151 0C20.1032 0 19.6214 0.199725 19.2591 0.5621L17.6662 2.15501C17.4705 2.35073 17.4705 2.66893 17.6662 2.86465C17.8619 3.06038 18.1801 3.06038 18.3758 2.86465L19.9687 1.27274C20.1403 1.10011 20.3702 1.00474 20.6201 1.00474C21.124 1.00474 21.5335 1.41426 21.5335 1.91811V12.4572C21.5335 12.7342 21.7583 12.9591 22.0354 12.9591C22.3124 12.9591 22.5372 12.7342 22.5382 12.4562V1.91713C22.5383 0.860206 21.6791 0 20.6151 0Z" fill="#888B97"/>
<path d="M18.8776 2.65681L17.8739 1.65311C17.7595 1.53868 17.5999 1.48547 17.4373 1.51257L14.928 1.92411C14.7433 1.95422 14.5917 2.08469 14.5325 2.26136C14.4733 2.43803 14.5185 2.63475 14.649 2.76822L17.6601 5.86973C17.7555 5.9691 17.887 6.02231 18.0194 6.02231C18.0666 6.02231 18.1148 6.0153 18.162 6.00123C18.3406 5.94905 18.4761 5.80151 18.5122 5.61881L19.0141 3.10952C19.0472 2.94588 18.996 2.77622 18.8776 2.65681Z" fill="#888B97"/>
<path d="M12.3525 6.08063C12.1567 5.88491 11.8385 5.88491 11.6428 6.08063L10.6391 7.08434C10.4434 7.28007 10.4434 7.59826 10.6391 7.79399C10.7375 7.89133 10.8659 7.94055 10.9944 7.94055C11.1229 7.94055 11.2514 7.89138 11.3488 7.79399L12.3525 6.79028C12.5482 6.59451 12.5482 6.27636 12.3525 6.08063Z" fill="#888B97"/>
<path d="M14.3599 8.08796C14.1641 7.89223 13.846 7.89223 13.6502 8.08796L12.6465 9.09166C12.4508 9.28739 12.4508 9.60559 12.6465 9.80131C12.7449 9.89866 12.8733 9.94787 13.0018 9.94787C13.1303 9.94787 13.2588 9.89871 13.3562 9.80131L14.3599 8.79761C14.5556 8.60188 14.5556 8.28368 14.3599 8.08796Z" fill="#888B97"/>
<path d="M15.3636 5.07673C15.1679 4.881 14.8497 4.881 14.654 5.07673L13.6503 6.08043C13.4545 6.27616 13.4545 6.59436 13.6503 6.79008C13.7486 6.88743 13.8771 6.93664 14.0056 6.93664C14.1341 6.93664 14.2625 6.88748 14.3599 6.79008L15.3636 5.78637C15.5593 5.59065 15.5593 5.27245 15.3636 5.07673Z" fill="#888B97"/>
</svg>
