<svg width="256" height="256" viewBox="0 0 256 256" fill="none" xmlns="http://www.w3.org/2000/svg">
<path d="M202.295 0H51.8919C23.2328 0 0 23.2328 0 51.8919V202.295C0 230.955 23.2328 254.187 51.8919 254.187H202.295C230.955 254.187 254.187 230.955 254.187 202.295V51.8919C254.187 23.2328 230.955 0 202.295 0Z" fill="url(#paint0_linear_120_244)"/>
<path d="M33.7038 97.4142L33.7091 97.3997C34.4374 95.3876 35.6386 93.6019 36.9664 91.8099L36.9795 91.7919C37.5503 90.9785 38.2896 90.2867 39.1161 89.5277C39.1445 89.5014 39.1728 89.4751 39.2015 89.4488C39.7371 88.9572 40.3065 88.4338 40.8375 87.8491C40.8562 87.9007 40.8773 87.9578 40.9008 88.0166C41.1963 93.9004 41.1509 99.7244 41.1056 105.583C41.0773 109.239 41.0489 112.907 41.1029 116.613C41.1029 117.253 41.1001 117.802 41.0001 118.335C40.8264 118.715 40.7285 119.1 40.6573 119.442C40.6158 119.642 40.5877 119.798 40.5618 119.942C40.5307 120.116 40.5023 120.273 40.457 120.469C40.3753 120.822 40.2774 121.093 40.1145 121.31C36.1676 118.225 33.7284 114.635 32.6575 110.734C31.5374 106.654 31.8923 102.153 33.7038 97.4142ZM42.1237 119.198L42.1255 119.171V119.144C42.1255 109.594 42.1255 100.046 42.1957 90.4998V90.4935C42.1957 90.1126 42.0753 89.7574 41.9933 89.5256C41.9698 89.4592 41.9484 89.4003 41.929 89.3467C45.0311 92.4651 47.5696 95.7329 48.8008 99.8254L48.8022 99.8303C49.9971 103.721 50.222 107.353 49.4291 110.714C48.6369 114.071 46.8162 117.218 43.8261 120.123C43.412 120.515 42.9492 120.831 42.4292 121.164C42.2102 121.103 42.1058 121.034 42.0597 120.994C42.0158 120.955 41.984 120.909 41.967 120.791C41.9463 120.646 41.9577 120.449 41.9992 120.157C42.0079 120.096 42.0186 120.027 42.03 119.953C42.0653 119.725 42.1082 119.446 42.1237 119.198Z" stroke="white" stroke-width="1.72973"/>
<path d="M41.2622 119.144C41.3325 120.279 41.403 121.415 42.528 122.083C41.8247 123.351 42.0358 124.754 41.9655 126.09C41.9655 126.557 42.3876 127.425 41.4733 127.359C40.6997 127.359 40.9107 126.557 40.8402 126.023C40.6291 124.821 40.3479 123.619 40.1372 122.417C40.4887 121.348 40.8402 120.213 41.2622 119.144Z" fill="#D1D1D1"/>
<path d="M208.563 119.812C209.899 118.61 211.094 118.61 212.29 119.612C213.486 120.614 214.54 120.414 215.806 119.612C218.76 117.876 221.713 116.273 224.737 114.67C225.792 114.136 226.214 113.468 226.214 112.333C226.144 108.793 226.144 105.253 226.214 101.781C226.214 100.779 225.862 100.245 224.948 99.7102C221.713 97.9739 218.479 96.2376 215.314 94.4341C214.4 93.9 213.767 93.9 212.852 94.4341C209.688 96.2376 206.453 98.0406 203.218 99.7102C202.234 100.245 201.812 100.846 201.882 101.914C201.952 105.454 201.882 108.993 201.882 112.533C201.882 114.069 205.539 116.54 207.016 116.006C208.07 115.672 208.141 114.803 208.141 113.869C208.141 110.329 208.141 106.789 208.141 103.25C208.141 102.515 207.719 101.58 209.195 101.513C210.602 101.446 210.391 102.382 210.391 103.183C210.391 106.856 210.462 110.463 210.391 114.136C210.321 117.609 208 118.944 204.624 117.609C201.319 116.34 199.28 114.536 199.772 110.663C200.194 107.591 199.913 104.452 199.842 101.38C199.772 99.9105 200.405 98.9757 201.741 98.2409C205.328 96.3711 208.844 94.3674 212.43 92.364C213.626 91.696 214.751 91.7627 215.947 92.364C219.533 94.3674 223.19 96.3711 226.777 98.3077C228.043 98.9757 228.535 99.9772 228.535 101.38C228.464 105.186 228.464 108.927 228.535 112.733C228.535 114.336 227.902 115.405 226.425 116.139C223.19 117.876 219.955 119.545 216.791 121.415C214.962 122.484 213.345 122.684 211.587 121.415C210.532 120.814 209.547 120.414 208.563 119.812Z" fill="#FDFEFD"/>
<path d="M217.565 113.534C215.947 113.601 214.471 113.401 213.064 112.533C212.291 112.065 211.658 111.397 211.517 110.462C211.447 109.928 211.165 109.26 212.01 109.126C212.642 108.993 213.205 108.993 213.627 109.728C214.682 111.531 218.479 112.266 220.308 111.13C220.87 110.796 221.152 110.329 221.152 109.728C221.081 109.06 220.589 108.726 220.026 108.659C218.479 108.392 216.932 108.192 215.385 107.924C212.853 107.457 211.869 106.522 211.869 104.719C211.869 102.849 213.135 101.58 215.526 101.246C217.143 101.045 218.761 101.045 220.378 101.513C221.574 101.914 222.417 102.581 222.839 103.717C223.05 104.185 223.402 104.919 222.699 105.186C222.136 105.386 221.363 105.52 220.8 104.719C219.604 103.049 217.776 102.581 215.736 103.116C215.033 103.316 214.33 103.583 214.33 104.452C214.26 105.386 214.963 105.587 215.736 105.721C217.354 105.988 218.971 106.188 220.519 106.522C222.206 106.856 223.613 107.59 223.613 109.527C223.613 111.33 222.558 112.533 220.729 113.067C219.675 113.468 218.62 113.601 217.565 113.534Z" fill="#FDFDFD"/>
<path d="M86.3387 118.705C83.4881 118.705 81.2048 117.833 79.4889 116.09C77.8007 114.318 76.8736 111.911 76.7075 108.866L76.666 107.455L76.7075 106.085C76.9013 103.096 77.8422 100.716 79.5305 98.9445C81.2463 97.1732 83.5019 96.2876 86.2972 96.2876C89.3692 96.2876 91.7493 97.2701 93.4375 99.2351C95.1257 101.172 95.9698 103.802 95.9698 107.123V107.828C95.9698 108.105 95.8729 108.34 95.6792 108.534C95.5132 108.7 95.2917 108.783 95.015 108.783H80.6513V109.157C80.7343 110.956 81.274 112.492 82.2703 113.765C83.2943 115.01 84.6366 115.633 86.2972 115.633C87.5702 115.633 88.6081 115.384 89.4107 114.886C90.2409 114.36 90.8498 113.82 91.2373 113.267C91.4863 112.935 91.6662 112.741 91.7769 112.685C91.9153 112.602 92.1506 112.561 92.4827 112.561H94.5168C94.7659 112.561 94.9735 112.63 95.1395 112.768C95.3056 112.907 95.3886 113.101 95.3886 113.35C95.3886 113.959 95.0012 114.692 94.2262 115.55C93.479 116.408 92.4135 117.155 91.0297 117.792C89.6736 118.4 88.1099 118.705 86.3387 118.705ZM92.026 105.919V105.794C92.026 103.885 91.5002 102.335 90.4485 101.145C89.4245 99.927 88.0407 99.3181 86.2972 99.3181C84.5536 99.3181 83.1698 99.927 82.1458 101.145C81.1495 102.335 80.6513 103.885 80.6513 105.794V105.919H92.026ZM99.4915 118.29C99.2701 118.29 99.0626 118.207 98.8688 118.041C98.7028 117.875 98.6197 117.667 98.6197 117.418C98.6197 117.169 98.7166 116.92 98.9103 116.671L106.134 107.247L99.367 98.3218C99.1733 98.1004 99.0764 97.8513 99.0764 97.5745C99.0764 97.3254 99.1594 97.1179 99.3255 96.9518C99.4915 96.7858 99.6991 96.7027 99.9482 96.7027H102.065C102.481 96.7027 102.84 96.9241 103.145 97.3669L108.666 104.549L114.187 97.4085C114.353 97.1871 114.506 97.021 114.644 96.9103C114.81 96.7719 115.018 96.7027 115.267 96.7027H117.301C117.55 96.7027 117.757 96.7858 117.924 96.9518C118.09 97.1179 118.173 97.3254 118.173 97.5745C118.173 97.8513 118.076 98.1004 117.882 98.3218L111.032 107.33L118.256 116.671C118.449 116.92 118.546 117.169 118.546 117.418C118.546 117.667 118.463 117.875 118.297 118.041C118.131 118.207 117.924 118.29 117.674 118.29H115.474C115.059 118.29 114.699 118.082 114.395 117.667L108.583 110.07L102.688 117.667C102.522 117.861 102.356 118.013 102.19 118.124C102.052 118.234 101.858 118.29 101.609 118.29H99.4915ZM158.245 109.107C159.763 109.107 160.993 107.876 160.993 106.358C160.993 104.841 159.763 103.61 158.245 103.61C156.727 103.61 155.497 104.841 155.497 106.358C155.497 107.876 156.727 109.107 158.245 109.107Z" fill="white"/>
<path d="M158.244 100.771C161.934 100.771 165.361 101.301 167.945 102.19C171.059 103.262 172.973 104.887 172.973 106.358C172.973 107.891 170.944 109.617 167.601 110.724C165.073 111.562 161.746 112 158.244 112C154.654 112 151.254 111.589 148.697 110.715C145.463 109.61 143.515 107.862 143.515 106.358C143.515 104.898 145.343 103.286 148.413 102.216C151.007 101.313 154.519 100.771 158.244 100.771Z" stroke="white" stroke-width="1.72973" stroke-miterlimit="10"/>
<path d="M153.381 103.581C155.224 100.385 157.395 97.6805 159.457 95.8867C161.941 93.7253 164.305 92.8787 165.579 93.6135C166.907 94.3791 167.389 96.9993 166.678 100.45C166.14 103.058 164.858 106.158 163.108 109.192C161.314 112.303 159.26 115.043 157.226 116.821C154.653 119.071 152.165 119.885 150.862 119.134C149.598 118.404 149.115 116.016 149.721 112.821C150.233 110.12 151.519 106.808 153.381 103.581Z" stroke="white" stroke-width="1.72973" stroke-miterlimit="10"/>
<path d="M153.386 109.198C151.538 106.005 150.279 102.774 149.754 100.092C149.122 96.8603 149.569 94.3892 150.842 93.6523C152.169 92.884 154.679 93.7751 157.313 96.1137C159.305 97.8822 161.349 100.541 163.104 103.573C164.903 106.681 166.252 109.829 166.776 112.478C167.44 115.831 166.902 118.393 165.601 119.146C164.338 119.877 162.027 119.104 159.562 116.983C157.48 115.191 155.253 112.423 153.386 109.198Z" stroke="white" stroke-width="1.72973" stroke-miterlimit="10"/>
<path d="M35.4144 161.135L34.1068 175.768H30.0903L32.0518 155.032H37.6562L42.9491 169.915L48.0864 155.032H53.6908L55.59 175.768H51.5424L50.1102 161.197L44.6304 175.986L40.9254 176.329L35.4144 161.135ZM90.6489 155.032H103.259V158.955H95.1012V163.096H101.858V166.895H95.1012V171.845H103.259V175.768H90.6489V155.032ZM151.513 155.032C152.135 155.011 153.298 155.001 155 155.001C156.722 155.001 157.895 155.011 158.518 155.032C160.884 155.115 162.649 155.696 163.811 156.776C164.973 157.834 165.554 159.266 165.554 161.072C165.554 162.608 165.16 163.916 164.371 164.995C163.603 166.054 162.524 166.749 161.133 167.081C161.569 167.434 162.015 167.922 162.472 168.545C162.929 169.147 163.562 170.091 164.371 171.378C165.222 172.727 166.084 174.191 166.956 175.768H161.725L158.207 169.23C157.833 168.545 157.49 168.119 157.179 167.953C156.889 167.766 156.442 167.673 155.84 167.673V175.768H151.513V155.032ZM157.771 164.217C158.829 164.217 159.66 163.947 160.261 163.407C160.884 162.868 161.196 162.141 161.196 161.228C161.196 160.398 160.926 159.765 160.386 159.329C159.846 158.893 159.058 158.675 158.02 158.675H155.84V164.217H157.771ZM209.315 155.032H214.608L223.201 169.572V155.032H227.342V175.768H222.111L213.456 161.135V175.768H209.315V155.032Z" fill="white"/>
<defs>
<linearGradient id="paint0_linear_120_244" x1="-18.3005" y1="-8.13319" x2="254.187" y2="254.187" gradientUnits="userSpaceOnUse">
<stop stop-color="#3CD89D"/>
<stop offset="1" stop-color="#82C444"/>
</linearGradient>
</defs>
</svg>
